<svg width="59" height="53" viewBox="0 0 59 53" fill="none" xmlns="http://www.w3.org/2000/svg">
<path id="Vector" d="M57.3493 4.13558C56.1389 2.87429 54.1354 2.83548 52.8766 4.04826L47.0067 9.69254C42.1653 3.77902 34.8158 0 26.598 0C12.0617 0 0.234619 11.827 0.234619 26.3634C0.234619 40.8998 12.0617 52.7244 26.598 52.7244C41.1344 52.7244 52.9615 40.8974 52.9615 26.3634C52.9615 22.3564 52.0616 18.558 50.4558 15.1549L57.2644 8.60832C58.5233 7.39796 58.5621 5.39445 57.3517 4.13558H57.3493ZM27.806 28.1535L19.4499 18.9606C18.2784 17.6702 16.2773 17.5732 14.9796 18.7496C13.6868 19.9236 13.5922 21.9246 14.7686 23.2199L25.3125 34.8165C25.3125 34.8165 25.3295 34.8335 25.3367 34.8408C25.3489 34.8553 25.3586 34.8674 25.3731 34.882C25.4071 34.9184 25.4459 34.9499 25.4799 34.9814C25.5138 35.0154 25.5502 35.0494 25.5866 35.0809C25.6302 35.1197 25.6763 35.1536 25.7224 35.19C25.7661 35.224 25.8073 35.2579 25.851 35.2871C25.8946 35.3162 25.9383 35.3428 25.9844 35.372C26.0329 35.4011 26.079 35.4326 26.1299 35.4593C26.1736 35.4835 26.2196 35.5054 26.2657 35.5272C26.3167 35.5514 26.3676 35.5781 26.4185 35.6C26.4671 35.6194 26.5156 35.6363 26.5641 35.6533C26.615 35.6727 26.666 35.6921 26.7169 35.7091C26.7727 35.7261 26.8285 35.7382 26.8843 35.7528C26.9303 35.7649 26.9764 35.7794 27.0249 35.7867C27.0929 35.8013 27.1632 35.8086 27.2335 35.8183C27.2675 35.8231 27.3039 35.8304 27.3378 35.8328C27.4421 35.8425 27.5489 35.8498 27.6532 35.8498C27.7502 35.8498 27.8472 35.8449 27.9442 35.8352C27.9733 35.8328 28.0024 35.828 28.0291 35.8231C28.097 35.8158 28.1649 35.8061 28.2304 35.794C28.2668 35.7867 28.3032 35.777 28.342 35.7697C28.4002 35.7576 28.4584 35.7455 28.5142 35.7285C28.553 35.7164 28.5918 35.7018 28.6307 35.6897C28.684 35.6727 28.7398 35.6557 28.7907 35.6339C28.8296 35.6194 28.8684 35.6 28.9072 35.583C28.9605 35.5611 29.0115 35.5369 29.0648 35.5126C29.1012 35.4957 29.1352 35.4738 29.1691 35.4544C29.2225 35.4253 29.2759 35.3962 29.3292 35.3622C29.3607 35.3428 29.3899 35.321 29.419 35.3016C29.4748 35.2628 29.5305 35.2264 29.5839 35.1828C29.6082 35.1658 29.63 35.1464 29.6518 35.127C29.6931 35.093 29.7367 35.0591 29.7779 35.0227C29.7949 35.0081 29.8071 34.9911 29.824 34.9766C29.8289 34.9717 29.8362 34.9669 29.8434 34.9596L44.7073 20.6682C45.2724 22.4631 45.578 24.3745 45.578 26.3537C45.578 36.82 37.0643 45.3337 26.598 45.3337C16.1317 45.3337 7.6156 36.8273 7.6156 26.3634C7.6156 15.8996 16.1317 7.38098 26.598 7.38098C32.7299 7.38098 38.1874 10.3062 41.6608 14.8299L27.806 28.1535Z" fill="#c09857"/>
</svg>
