<svg width="42" height="38" viewBox="0 0 42 38" fill="none" xmlns="http://www.w3.org/2000/svg">
<mask id="mask0_44_1758" style="mask-type:luminance" maskUnits="userSpaceOnUse" x="0" y="0" width="42" height="38">
<path d="M41.657 0H0.656982V38H41.657V0Z" fill="white"/>
</mask>
<g mask="url(#mask0_44_1758)">
<path d="M28.3529 3.81091C26.7561 3.51777 25.1314 4.19269 24.2389 5.52207C22.4957 4.17905 19.9646 4.4722 18.591 6.17654C18.5003 6.29244 18.4097 6.40833 18.333 6.53786C16.534 5.33119 14.0796 5.74023 12.7966 7.47184L9.74946 3.10191C8.36885 1.11806 5.60065 0.606753 3.57157 1.95659C3.55762 1.97023 3.5367 1.97704 3.52276 1.99068C1.52854 3.39506 1.04742 6.10155 2.44895 8.07859L11.409 20.9293L9.7913 20.0499C8.45949 19.3204 6.82089 19.3954 5.56578 20.2339C3.73194 21.4611 3.26476 23.9085 4.51289 25.7015C4.86153 26.206 5.32871 26.6218 5.87259 26.915L24.3296 36.9706C25.6614 37.7 27.3 37.6319 28.5551 36.7865L38.4076 30.4668L38.4425 30.4395C40.7853 28.8784 41.5872 26.7786 40.8272 24.2017C40.8132 24.1471 40.7993 24.1062 40.7853 24.0653C40.7714 24.004 40.7505 23.9358 40.7226 23.8744L36.511 14.0233C36.4901 13.9824 36.4762 13.9415 36.4552 13.9074L35.1304 11.5077C35.1095 11.4668 35.0816 11.4327 35.0607 11.3918L30.9258 5.46072C30.3262 4.59491 29.3988 4.0018 28.3529 3.81091ZM32.8224 12.803L34.0845 15.08L38.2333 24.7948C38.2403 24.8357 38.2542 24.8698 38.2682 24.9175C38.4983 25.6947 38.8818 26.99 36.9433 28.2784L27.0908 34.5981L27.0699 34.6118L27.0559 34.6254C26.6306 34.9117 26.0797 34.9322 25.6265 34.6868L7.16953 24.6312C6.51408 24.2766 6.28398 23.4654 6.64657 22.8245C7.00915 22.1837 7.83891 21.9587 8.49436 22.3132L15.0069 25.8651C15.6554 26.2196 16.4712 25.9878 16.8268 25.3606C17.0709 24.9311 17.05 24.3994 16.7641 23.9903L4.65235 6.59922C4.07361 5.80159 4.2549 4.69717 5.05677 4.1177C5.85864 3.56549 6.97429 3.75638 7.53908 4.54037C7.53908 4.54719 7.55303 4.55401 7.55303 4.56083L12.7268 11.9918L17.2731 18.5092C17.6845 19.1023 18.5143 19.2591 19.1209 18.85C19.7275 18.4478 19.8879 17.6365 19.4695 17.0434L14.9233 10.526C14.5049 9.91927 14.6653 9.09437 15.2789 8.67851C15.8995 8.26947 16.7362 8.42627 17.1615 9.0262L18.4166 10.826L21.7078 15.5504C22.1401 16.1367 22.9699 16.2662 23.5695 15.8436C24.1413 15.4413 24.2947 14.6642 23.9112 14.0779L20.62 9.35343C20.1947 8.74669 20.3551 7.92179 20.9756 7.50593C21.5962 7.09689 22.4399 7.25368 22.8653 7.85361L24.2738 9.87837L26.1564 12.578C26.5678 13.1712 27.3976 13.328 28.0042 12.9189C28.6109 12.5167 28.7712 11.7054 28.3529 11.1123L26.4702 8.41264C26.0449 7.80589 26.2052 6.98099 26.8258 6.56513C27.1256 6.36743 27.4882 6.29244 27.8438 6.36061C28.1995 6.42197 28.5063 6.62649 28.7085 6.91282L32.8085 12.7894L32.8224 12.803Z" fill="black"/>
<path d="M32.8224 12.803L34.0845 15.08L38.2333 24.7948C38.2403 24.8357 38.2542 24.8697 38.2682 24.9175C38.4983 25.6946 38.8818 26.9899 36.9434 28.2784L27.0978 34.5981L27.0769 34.6118L27.0629 34.6254C26.6376 34.9117 26.0867 34.9322 25.6335 34.6868L7.17652 24.6311C6.52108 24.2766 6.29098 23.4654 6.65356 22.8245C7.01615 22.1837 7.84591 21.9587 8.50135 22.3132L15.0139 25.8651C15.6624 26.2196 16.4782 25.9878 16.8338 25.3606C17.0779 24.9311 17.057 24.3993 16.7711 23.9903L4.65237 6.59921C4.07363 5.80158 4.25492 4.69716 5.05679 4.11769C5.85866 3.56548 6.97431 3.75637 7.53911 4.54036C7.53911 4.54718 7.55305 4.554 7.55305 4.56082L12.7338 11.9849L17.2731 18.5091C17.6845 19.1023 18.5143 19.2591 19.1209 18.85C19.7275 18.4478 19.8879 17.6365 19.4695 17.0434L14.9233 10.526C14.5049 9.91926 14.6653 9.09436 15.2789 8.6785C15.8995 8.26946 16.7362 8.42626 17.1616 9.02619L18.4167 10.826L21.7078 15.5504C22.1401 16.1367 22.9699 16.2662 23.5695 15.8436C24.1413 15.4413 24.2947 14.6642 23.9112 14.0779L20.6201 9.35342C20.1947 8.74668 20.3551 7.92178 20.9757 7.50592C21.5962 7.09688 22.44 7.25367 22.8653 7.8536L24.2738 9.87836L26.1565 12.578C26.5678 13.1711 27.3976 13.3279 28.0042 12.9189C28.6109 12.5167 28.7712 11.7054 28.3529 11.1123L26.4702 8.41263C26.0449 7.80588 26.2053 6.98098 26.8258 6.56512C27.1257 6.36742 27.4883 6.29243 27.8439 6.3606C28.1995 6.42196 28.5063 6.62648 28.7085 6.91281L32.8015 12.7894L32.8224 12.803Z" fill="white"/>
</g>
</svg>
