<svg width="31" height="31" viewBox="0 0 31 31" fill="none" xmlns="http://www.w3.org/2000/svg">
<g id="Group_654">
<g id="Ellipse_3">
<path id="Vector" d="M15.4785 0.338377C23.8985 0.338378 30.7459 7.18578 30.7459 15.6057C30.7459 24.0256 23.8984 30.873 15.4785 30.873C7.05858 30.873 0.211182 24.0256 0.211183 15.6057C0.211183 7.18577 7.05858 0.338376 15.4785 0.338377ZM15.4785 27.0562C21.7916 27.0562 26.929 21.9188 26.929 15.6057C26.929 9.29267 21.7916 4.15521 15.4785 4.15521C9.16547 4.15521 4.02802 9.29267 4.02802 15.6057C4.02802 21.9188 9.16547 27.0562 15.4785 27.0562Z" fill="#c09857"/>
</g>
<path id="Vector_2" d="M9.22654 15.3541L13.9212 20.5221C13.9212 20.5221 13.967 20.5603 13.9823 20.5756C14.0052 20.5985 14.0128 20.6214 14.0357 20.6366C14.0663 20.6595 14.0968 20.6824 14.1197 20.7053C14.1732 20.7511 14.219 20.7893 14.28 20.8198C14.3335 20.858 14.3869 20.8885 14.4403 20.9114C14.4938 20.942 14.5472 20.9649 14.6083 20.9878C14.6693 21.0107 14.7304 21.0336 14.7915 21.0488C14.8449 21.0641 14.906 21.0794 14.9594 21.0946C15.0205 21.1099 15.0892 21.1175 15.1503 21.1252C15.2113 21.1252 15.2648 21.1328 15.3258 21.1328C15.3869 21.1328 15.4556 21.1328 15.5167 21.1252C15.5777 21.1252 15.6312 21.1099 15.6923 21.1023C15.7533 21.087 15.8144 21.0717 15.8755 21.0565C15.9365 21.0412 15.99 21.0183 16.0434 20.9954C16.1045 20.9725 16.1579 20.942 16.219 20.9114C16.2724 20.8809 16.3258 20.8504 16.3793 20.8198C16.4327 20.7817 16.4862 20.7435 16.5396 20.7053C16.5701 20.6824 16.6007 20.6672 16.6236 20.6366C16.6465 20.6137 16.6617 20.5908 16.677 20.5756C16.6999 20.5527 16.7228 20.545 16.7381 20.5221L21.6236 15.232C22.3412 14.461 22.2877 13.2472 21.5167 12.5373C21.1503 12.2014 20.6847 12.0335 20.219 12.0335C19.7076 12.0335 19.1961 12.2396 18.8144 12.6442L15.3487 16.3999L12.051 12.7739C11.6769 12.3617 11.1579 12.148 10.6388 12.148C10.1807 12.148 9.72272 12.3083 9.35631 12.6442C8.57767 13.3541 8.5166 14.5602 9.22654 15.3389L9.22654 15.3541Z" fill="#c09857"/>
</g>
</svg>
